<svg width="598" height="651" viewBox="0 0 598 651" fill="none" xmlns="http://www.w3.org/2000/svg">
<path d="M277.024 562.975C418.79 562.975 533.713 448.003 533.713 306.178C533.713 164.353 418.79 49.3815 277.024 49.3815C135.259 49.3815 20.3359 164.353 20.3359 306.178C20.3359 448.003 135.259 562.975 277.024 562.975Z" fill="#009FD0"/>
<path d="M69.136 245.673C90.4796 253.805 84.3854 244.655 92.5141 225.329C100.643 206.002 104.712 214.143 125.048 206.002C145.383 197.87 145.383 192.781 140.297 176.508C135.211 160.234 147.408 173.455 165.71 172.437C184.011 171.419 187.063 166.331 195.191 147.014C203.32 127.687 167.744 132.775 145.383 134.811C123.022 136.846 132.168 121.59 136.237 110.405C140.306 99.22 92.5235 106.334 92.5235 106.334L9.16477 249.734C18.3013 240.584 47.7829 237.531 69.136 245.673ZM180.959 356.526C154.529 346.358 163.675 337.199 149.443 320.935C135.211 304.661 109.798 317.882 103.695 313.82C97.591 309.75 74.2129 326.023 64.0497 316.873C53.8865 307.724 63.0324 301.617 72.1783 289.415C81.3243 277.212 85.3933 275.176 80.307 270.088C75.2207 265 64.0403 279.238 53.8771 283.309C43.7139 287.379 49.8081 279.238 29.4817 274.159C9.14593 269.07 2.03452 273.141 2.03452 273.141L5.33769e-09 313.82C5.33769e-09 313.82 33.5507 316.873 43.7139 316.873C53.8771 316.873 57.9461 326.023 66.0748 331.112C74.2034 336.2 66.0748 354.5 53.8771 366.702C41.6794 378.905 53.8771 382.976 62.0058 390.09C70.1344 397.205 76.238 405.346 89.4529 422.638C102.668 439.929 105.72 452.132 117.917 492.811C130.115 533.49 128.081 536.543 134.184 542.64C140.288 548.746 155.528 552.808 155.528 552.808C155.528 552.808 160.614 530.437 161.631 519.243C162.648 508.057 178.915 491.784 189.078 479.581C199.242 467.378 202.293 457.211 192.13 438.902C181.967 420.593 196.199 419.575 211.449 398.223C226.698 376.86 207.389 366.693 180.959 356.526ZM465.594 106.344C465.594 106.344 459.49 135.838 441.199 130.749C422.897 125.661 420.863 119.564 405.623 133.803C390.373 148.041 381.227 154.147 363.943 156.173C346.659 158.208 333.444 163.287 337.514 173.464C341.583 183.632 341.583 197.87 365.978 193.808C390.373 189.738 386.314 190.755 403.588 197.879C420.872 204.994 435.104 174.491 451.371 204.994C452.746 207.576 454.376 210.167 456.222 212.739C461.469 220.033 453.952 229.739 445.588 226.478C445.484 226.44 445.381 226.393 445.277 226.356C424.941 218.224 424.941 214.153 411.726 220.249C398.511 226.356 384.279 222.285 377.158 215.161C370.047 208.047 371.055 199.905 356.823 211.09C342.59 222.275 340.556 217.196 324.289 229.399C308.022 241.602 297.859 244.655 301.928 257.876C305.997 271.096 297.859 277.202 313.109 290.423C328.358 303.643 340.556 305.679 356.823 317.882C373.089 330.085 378.166 315.846 386.304 348.393C394.433 380.941 387.322 393.143 400.537 413.478C413.751 433.823 417.82 454.158 432.053 454.158C446.285 454.158 454.414 448.052 459.5 433.813C464.586 419.575 461.534 409.408 472.715 397.205C483.895 385.002 476.784 364.658 489.999 351.437C503.214 338.217 525.575 332.11 505.248 313.811C484.913 295.502 479.836 298.555 472.715 288.388C465.603 278.22 458.483 275.167 472.715 261.946C480.288 254.907 486.42 248.453 489.895 241.951C509.251 252.288 530.614 254.587 543.876 238.558L465.594 106.344Z" fill="#86C344"/>
<path d="M294.807 92.1056C280.575 82.9558 271.429 94.141 256.18 92.1056C240.93 90.0702 201.286 73.7966 193.157 97.194C193.157 97.194 193.129 106.391 200.268 109.397C220.321 117.83 222.629 138.891 233.819 129.741C244.999 120.591 259.232 104.318 275.498 107.371C291.765 110.405 309.04 101.255 294.807 92.1056ZM69.136 245.673C90.4796 253.805 84.3854 244.655 92.5141 225.329C100.643 206.002 104.712 214.143 125.048 206.002C145.383 197.87 145.383 192.781 140.297 176.508C135.211 160.234 147.408 173.455 165.71 172.437C184.011 171.419 187.063 166.331 195.191 147.014C203.32 127.687 167.744 132.775 145.383 134.811C123.022 136.846 132.168 121.59 136.237 110.405C140.306 99.22 92.5235 106.334 92.5235 106.334L9.16477 249.734C18.3013 240.584 47.7829 237.531 69.136 245.673ZM180.959 356.526C154.529 346.358 163.675 337.199 149.443 320.935C135.211 304.661 109.798 317.882 103.695 313.82C97.591 309.75 74.2129 326.023 64.0497 316.873C53.8865 307.724 63.0324 301.617 72.1783 289.415C81.3243 277.212 85.3933 275.176 80.307 270.088C75.2207 265 64.0403 279.238 53.8771 283.309C43.7139 287.379 49.8081 279.238 29.4817 274.159C9.14593 269.07 2.03452 273.141 2.03452 273.141L5.83143e-09 313.82C5.83143e-09 313.82 33.5507 316.873 43.7139 316.873C53.8771 316.873 57.9461 326.023 66.0748 331.112C74.2034 336.2 66.0748 354.5 53.8771 366.702C41.6794 378.905 53.8771 382.976 62.0058 390.09C70.1344 397.205 76.238 405.346 89.4529 422.638C102.668 439.929 105.72 452.132 117.917 492.811C130.115 533.49 128.081 536.543 134.184 542.64C140.288 548.746 155.528 552.808 155.528 552.808C155.528 552.808 160.614 530.437 161.631 519.243C162.648 508.057 178.915 491.784 189.078 479.581C199.242 467.378 202.293 457.211 192.13 438.902C181.967 420.593 196.199 419.575 211.449 398.223C226.698 376.86 207.389 366.693 180.959 356.526ZM465.594 106.344C465.594 106.344 459.49 135.838 441.199 130.749C422.897 125.661 420.863 119.564 405.623 133.803C390.373 148.041 381.227 154.147 363.943 156.173C346.659 158.208 333.444 163.287 337.514 173.464C341.583 183.632 341.583 197.87 365.978 193.808C390.373 189.738 386.314 190.755 403.588 197.879C420.872 204.994 435.104 174.491 451.371 204.994C452.746 207.576 454.376 210.167 456.222 212.739C461.469 220.033 453.952 229.739 445.588 226.478C445.484 226.44 445.381 226.393 445.277 226.356C424.941 218.224 424.941 214.153 411.726 220.25C398.511 226.356 384.279 222.285 377.158 215.161C370.047 208.047 371.055 199.905 356.823 211.09C342.59 222.275 340.556 217.196 324.289 229.399C308.022 241.602 297.859 244.655 301.928 257.876C305.997 271.096 297.859 277.202 313.109 290.423C328.358 303.643 340.556 305.679 356.823 317.882C373.089 330.085 378.166 315.846 386.304 348.393C394.433 380.941 387.322 393.143 400.537 413.478C413.751 433.823 417.82 454.158 432.053 454.158C446.285 454.158 454.414 448.052 459.5 433.813C464.586 419.575 461.534 409.408 472.715 397.205C483.895 385.002 476.784 364.658 489.999 351.437C503.214 338.217 525.575 332.11 505.248 313.811C484.913 295.502 479.836 298.555 472.715 288.388C465.603 278.22 458.483 275.167 472.715 261.946C480.288 254.907 486.42 248.453 489.895 241.951C509.251 252.288 530.614 254.587 543.876 238.558L465.594 106.344Z" fill="#3ABEB5"/>
<path d="M132.413 318.975C109.657 318.805 94.2002 310.136 96.9129 299.94C99.635 289.744 111.352 289.066 108.63 278.022C105.908 266.978 116.448 261.881 121.195 261.202C125.952 260.524 134.448 260.693 137.33 268.166C140.222 275.638 145.139 265.273 151.261 268.844C157.374 272.415 151.6 280.906 155.678 282.611C159.757 284.307 177.644 291.695 163.666 307.252C152.787 319.342 132.413 318.975 132.413 318.975Z" fill="#33A96A"/>
<path d="M131.896 275.139C130.539 277.005 129.635 279.172 129.07 281.396C128.486 283.619 128.288 285.938 128.476 288.227C128.655 290.527 129.268 292.75 130.059 294.908C130.878 297.066 131.556 299.281 132.169 301.504C133.308 305.98 134.071 310.56 134.335 315.168C134.552 319.747 134.467 324.506 132.753 328.831C133.582 326.673 133.958 324.374 134.137 322.084C134.316 319.785 134.297 317.476 134.156 315.187C133.864 310.588 133.064 306.027 131.905 301.58C131.312 299.356 130.652 297.151 129.842 294.993C129.06 292.816 128.458 290.564 128.288 288.246C127.949 283.629 129.164 278.861 131.896 275.139Z" fill="#462754"/>
<path d="M118.991 283.12C119.198 284.722 119.603 286.296 120.131 287.813C120.668 289.32 121.337 290.8 122.288 292.091C123.22 293.391 124.426 294.484 125.829 295.247L126.922 295.738C127.299 295.869 127.694 295.935 128.081 296.048C128.278 296.096 128.467 296.152 128.665 296.199L129.267 296.246L130.473 296.341C128.872 296.341 127.195 296.209 125.735 295.427C124.275 294.692 123.041 293.561 122.071 292.242C121.12 290.913 120.442 289.405 119.943 287.869C119.434 286.333 119.104 284.741 118.991 283.12Z" fill="#462754"/>
<path d="M133.195 306.678C134.73 306.753 136.275 306.536 137.716 306.037C139.139 305.519 140.476 304.689 141.418 303.493C142.369 302.315 143 300.901 143.349 299.412C143.537 298.678 143.584 297.905 143.716 297.151L143.792 294.842L143.848 297.151C143.744 297.914 143.716 298.696 143.556 299.45C143.245 300.967 142.595 302.428 141.625 303.653C140.636 304.868 139.252 305.735 137.782 306.216C136.294 306.706 134.721 306.857 133.195 306.678Z" fill="#462754"/>
<path d="M143.085 300.788C144.168 300.967 145.27 300.977 146.344 300.873C147.418 300.751 148.482 300.477 149.434 299.959C149.923 299.723 150.338 299.384 150.762 299.054C151.129 298.659 151.525 298.291 151.807 297.82C152.448 296.944 152.806 295.898 153.126 294.852C152.985 295.379 152.9 295.926 152.711 296.444C152.495 296.953 152.306 297.481 151.977 297.933C151.713 298.433 151.299 298.819 150.931 299.233C150.498 299.582 150.065 299.95 149.566 300.195C147.569 301.222 145.204 301.316 143.085 300.788Z" fill="#462754"/>
<path d="M129.597 279.473C128.599 279.483 127.572 279.455 126.611 279.068C125.66 278.701 124.803 277.966 124.436 276.986C124.078 276.006 124.097 274.941 124.332 273.961C124.568 272.971 125.01 272.039 125.604 271.238C125.086 272.095 124.728 273.037 124.53 274.008C124.341 274.969 124.323 275.987 124.681 276.891C125.001 277.815 125.792 278.493 126.687 278.889C127.6 279.285 128.608 279.379 129.597 279.473Z" fill="#462754"/>
<path d="M499.22 213.286L597.979 213.286C597.979 213.286 599.778 179.957 570.033 193.912C584.463 162.769 536.058 151.951 527.346 182.614C527.336 137.515 446.445 184.423 499.22 213.286Z" fill="white"/>
<path d="M60.7249 49.3909L159.474 49.3909C159.474 49.3909 161.273 16.0616 131.528 30.0172C145.958 -1.12598 97.5535 -11.9436 88.8408 18.7189C88.8408 -26.3797 7.94983 20.5282 60.7249 49.3909Z" fill="white"/>
<path d="M126.555 650.948L262.17 650.948C262.17 650.948 264.647 605.171 223.788 624.347C243.596 581.586 177.125 566.716 165.173 608.837C165.173 546.899 54.0842 611.315 126.555 650.948Z" fill="white"/>
<path d="M397.881 251.129C433.711 251.242 408.364 230.69 414.515 219.232C420.665 207.773 407.865 207.689 412.339 192.244C421.014 162.345 395.535 146.335 391.994 170.364C390.223 182.35 379.617 194.543 385.089 208.047C390.553 221.559 367.212 251.035 397.881 251.129Z" fill="#66BE8F"/>
<path d="M400.725 172.786C400.838 188.626 400.81 204.475 400.857 220.315C400.81 236.156 400.838 252.005 400.725 267.845C400.612 252.005 400.64 236.156 400.593 220.315C400.64 204.475 400.612 188.626 400.725 172.786Z" fill="#462754"/>
<path d="M400.725 236.467C399.642 237.098 398.474 237.588 397.259 237.889C396.044 238.191 394.734 238.304 393.491 237.927C392.248 237.55 391.278 236.504 390.854 235.308C390.402 234.12 390.298 232.839 390.355 231.595C390.402 232.839 390.581 234.092 391.052 235.232C391.297 235.788 391.598 236.335 392.041 236.749C392.474 237.173 393.001 237.484 393.585 237.663C394.744 238.04 396.015 237.937 397.221 237.682C398.427 237.428 399.604 237.004 400.725 236.467Z" fill="#462754"/>
<path d="M400.725 224.292C402.26 224.537 403.843 224.631 405.359 224.301C406.857 223.962 408.223 223.029 408.929 221.663C409.645 220.297 409.814 218.714 409.805 217.168C409.786 215.613 409.522 214.068 409.24 212.532C409.617 214.049 409.946 215.585 410.012 217.159C410.059 218.723 409.89 220.344 409.165 221.785C408.411 223.208 406.96 224.188 405.406 224.499C403.843 224.81 402.251 224.631 400.725 224.292Z" fill="#462754"/>
<path d="M400.725 189.681C402.26 189.926 403.843 190.02 405.359 189.691C406.857 189.351 408.223 188.418 408.929 187.052C409.645 185.686 409.814 184.103 409.805 182.557C409.786 181.003 409.522 179.457 409.24 177.921C409.617 179.438 409.946 180.974 410.012 182.548C410.059 184.112 409.89 185.733 409.165 187.175C408.411 188.598 406.96 189.578 405.406 189.888C403.843 190.19 402.251 190.02 400.725 189.681Z" fill="#462754"/>
<path d="M400.725 211.769C398.907 211.806 397.052 211.524 395.375 210.751C393.699 209.997 392.258 208.678 391.4 207.038C390.543 205.389 390.261 203.495 390.44 201.667C390.609 199.839 391.193 198.077 391.994 196.437C391.287 198.115 390.779 199.886 390.647 201.686C390.515 203.476 390.798 205.323 391.645 206.916C391.815 207.34 392.126 207.67 392.361 208.056C392.625 208.424 392.955 208.725 393.256 209.064C393.604 209.347 393.944 209.649 394.311 209.903C394.707 210.12 395.064 210.393 395.479 210.581C397.09 211.354 398.907 211.703 400.725 211.769Z" fill="#462754"/>
<path d="M166.67 387.019C132.517 387.113 156.677 369.69 150.818 359.965C144.96 350.25 157.157 350.174 152.89 337.076C144.62 311.719 168.903 298.14 172.284 318.522C173.97 328.69 184.077 339.027 178.868 350.485C173.65 361.934 195.898 386.934 166.67 387.019Z" fill="#009345"/>
<path d="M163.958 320.567C164.071 334.005 164.043 347.442 164.09 360.888C164.043 374.326 164.071 387.763 163.958 401.21C163.845 387.772 163.873 374.335 163.826 360.888C163.873 347.442 163.845 334.005 163.958 320.567Z" fill="#462754"/>
<path d="M163.958 374.58C165.003 375.023 166.096 375.362 167.198 375.579C168.3 375.796 169.449 375.899 170.532 375.635C171.625 375.419 172.576 374.703 173.094 373.713C173.603 372.724 173.8 371.574 173.848 370.443C173.895 371.574 173.772 372.752 173.273 373.807C172.774 374.872 171.738 375.645 170.589 375.899C169.439 376.144 168.262 376.041 167.151 375.777C166.039 375.522 164.965 375.108 163.958 374.58Z" fill="#462754"/>
<path d="M163.958 364.252C162.592 364.526 161.179 364.686 159.776 364.488C159.069 364.403 158.391 364.177 157.751 363.866C157.148 363.499 156.536 363.075 156.14 362.472C155.302 361.294 155.047 359.814 155.095 358.42C155.142 357.006 155.452 355.63 155.839 354.292C155.547 355.659 155.311 357.034 155.302 358.42C155.292 359.795 155.547 361.218 156.357 362.321C156.724 362.905 157.289 363.301 157.864 363.659C158.476 363.96 159.126 364.177 159.813 364.29C161.17 364.516 162.573 364.441 163.958 364.252Z" fill="#462754"/>
<path d="M163.958 334.89C162.592 335.164 161.179 335.324 159.776 335.126C159.069 335.041 158.391 334.815 157.751 334.504C157.148 334.136 156.536 333.712 156.14 333.109C155.302 331.931 155.047 330.452 155.095 329.057C155.142 327.644 155.452 326.268 155.839 324.93C155.547 326.296 155.311 327.672 155.302 329.057C155.292 330.433 155.547 331.856 156.357 332.959C156.724 333.543 157.289 333.939 157.864 334.297C158.476 334.598 159.126 334.815 159.813 334.928C161.17 335.154 162.573 335.079 163.958 334.89Z" fill="#462754"/>
<path d="M163.958 353.633C165.578 353.567 167.198 353.303 168.686 352.7C170.174 352.106 171.531 351.145 172.425 349.816C173.339 348.497 173.678 346.858 173.574 345.256C173.48 343.654 172.972 342.09 172.284 340.62C173.066 342.042 173.65 343.597 173.782 345.246C173.923 346.876 173.574 348.582 172.642 349.967C171.7 351.333 170.287 352.332 168.761 352.898C167.226 353.473 165.578 353.661 163.958 353.633Z" fill="#462754"/>
<path d="M146.174 438.581C123.418 438.412 107.961 429.743 110.674 419.547C113.396 409.351 125.113 408.673 122.391 397.629C119.669 386.585 130.209 381.487 134.956 380.809C139.713 380.13 148.209 380.3 151.091 387.772C153.983 395.245 158.909 384.88 165.022 388.451C171.135 392.022 165.361 400.512 169.439 402.218C173.518 403.914 191.405 411.302 177.427 426.859C166.557 438.94 146.174 438.581 146.174 438.581Z" fill="#006E34"/>
<path d="M145.666 394.736C144.31 396.602 143.415 398.769 142.841 400.993C142.257 403.217 142.059 405.535 142.247 407.825C142.426 410.124 143.038 412.348 143.83 414.506C144.649 416.663 145.327 418.878 145.939 421.102C147.079 425.578 147.842 430.157 148.106 434.765C148.322 439.345 148.238 444.103 146.523 448.428C147.352 446.271 147.729 443.971 147.908 441.682C148.087 439.382 148.068 437.074 147.927 434.784C147.635 430.185 146.834 425.625 145.676 421.177C145.082 418.953 144.423 416.748 143.613 414.59C142.831 412.414 142.228 410.162 142.059 407.843C141.71 403.236 142.935 398.468 145.666 394.736Z" fill="#462754"/>
<path d="M132.762 402.727C132.969 404.329 133.374 405.902 133.902 407.419C134.439 408.927 135.107 410.407 136.059 411.707C136.991 413.007 138.197 414.1 139.6 414.864L140.693 415.354C141.07 415.486 141.465 415.552 141.851 415.665C142.049 415.712 142.238 415.768 142.435 415.815L143.038 415.862L144.244 415.957C142.643 415.957 140.966 415.825 139.506 415.043C138.046 414.308 136.812 413.177 135.842 411.858C134.891 410.529 134.213 409.021 133.713 407.485C133.205 405.94 132.875 404.338 132.762 402.727Z" fill="#462754"/>
<path d="M146.966 426.284C148.501 426.36 150.046 426.143 151.487 425.644C152.909 425.125 154.247 424.296 155.189 423.099C156.14 421.922 156.771 420.508 157.12 419.019C157.308 418.284 157.355 417.511 157.487 416.758L157.563 414.449L157.619 416.758C157.515 417.521 157.487 418.303 157.327 419.057C157.016 420.574 156.366 422.035 155.396 423.26C154.407 424.475 153.023 425.342 151.553 425.823C150.065 426.313 148.492 426.454 146.966 426.284Z" fill="#462754"/>
<path d="M156.856 420.386C157.939 420.565 159.041 420.574 160.115 420.47C161.189 420.348 162.253 420.075 163.204 419.556C163.694 419.321 164.109 418.981 164.533 418.652C164.9 418.256 165.295 417.888 165.578 417.417C166.218 416.541 166.576 415.495 166.897 414.449C166.755 414.977 166.671 415.523 166.482 416.041C166.266 416.55 166.077 417.078 165.748 417.53C165.484 418.03 165.069 418.416 164.702 418.831C164.269 419.179 163.835 419.547 163.336 419.792C161.339 420.828 158.975 420.913 156.856 420.386Z" fill="#462754"/>
<path d="M143.368 399.08C142.369 399.089 141.342 399.061 140.382 398.675C139.43 398.307 138.573 397.572 138.206 396.592C137.848 395.612 137.867 394.548 138.102 393.568C138.338 392.578 138.78 391.645 139.374 390.844C138.856 391.702 138.498 392.644 138.3 393.615C138.112 394.576 138.093 395.593 138.451 396.498C138.771 397.422 139.562 398.1 140.457 398.496C141.371 398.882 142.379 398.986 143.368 399.08Z" fill="#462754"/>
<path d="M149.038 139.654C130.831 134.98 120.997 121.43 126.197 109.576C131.406 97.7217 141.004 99.1917 142.106 85.2456C143.198 71.2901 153.164 67.1628 157.176 67.2759C161.198 67.3795 167.961 69.2547 168.055 78.9039C168.159 88.5531 175.185 76.9251 179.028 82.4564C182.881 87.9877 175.722 97.1846 178.492 100.04C181.261 102.904 193.421 115.39 177.587 131.541C165.286 144.083 149.038 139.654 149.038 139.654Z" fill="#009345"/>
<path d="M159.107 96.6381C157.497 98.2871 156.272 100.266 155.292 102.339C154.303 104.412 153.606 106.617 153.23 108.888C152.843 111.15 152.806 113.458 152.928 115.748C153.079 118.047 153.088 120.356 153.041 122.664C152.881 127.272 152.382 131.871 151.497 136.394C150.564 140.889 149.396 145.44 146.957 149.379C148.143 147.409 148.982 145.242 149.669 143.056C150.357 140.86 150.884 138.618 151.318 136.366C152.175 131.843 152.636 127.254 152.768 122.664C152.825 120.365 152.834 118.066 152.702 115.776C152.589 113.477 152.646 111.15 153.051 108.869C153.861 104.318 155.876 99.9267 159.107 96.6381Z" fill="#462754"/>
<path d="M146.844 101.924C146.655 103.413 146.599 104.921 146.636 106.419C146.674 107.917 146.844 109.416 147.211 110.857C147.588 112.29 148.162 113.703 149.132 114.834C150.074 115.984 151.421 116.766 152.89 117.114C152.156 116.973 151.431 116.737 150.752 116.389C150.093 116.021 149.49 115.531 148.982 114.966C147.946 113.826 147.352 112.375 146.957 110.923C146.25 107.965 146.297 104.874 146.844 101.924Z" fill="#462754"/>
<path d="M152.608 127.762C153.964 128.196 155.424 128.262 156.79 127.932C158.155 127.612 159.399 126.858 160.36 125.84C161.377 124.86 162.017 123.569 162.63 122.306C162.874 121.637 163.148 120.987 163.364 120.309L163.939 118.255L163.487 120.346C163.298 121.034 163.044 121.703 162.818 122.382C162.234 123.682 161.575 124.992 160.548 126.019C159.549 127.056 158.259 127.838 156.837 128.12C155.424 128.441 153.936 128.29 152.608 127.762Z" fill="#462754"/>
<path d="M161.961 123.937C162.846 124.351 163.797 124.596 164.758 124.69C165.719 124.766 166.699 124.643 167.565 124.248C168.432 123.861 169.213 123.277 169.844 122.533C170.184 122.184 170.419 121.76 170.721 121.374L171.446 120.101L170.834 121.44C170.56 121.845 170.334 122.288 170.005 122.665C169.402 123.456 168.582 124.069 167.678 124.493C166.755 124.888 165.728 125.02 164.749 124.898C163.75 124.766 162.799 124.445 161.961 123.937Z" fill="#462754"/>
<path d="M156.225 100.426C155.32 100.228 154.397 99.8984 153.7 99.22C152.994 98.551 152.655 97.5615 152.664 96.6098C152.683 95.6486 152.956 94.7158 153.371 93.8677C153.785 93.0196 154.341 92.2375 155.01 91.5779C154.416 92.3035 153.936 93.1044 153.559 93.9525C153.192 94.8006 152.928 95.7052 152.937 96.6098C152.919 97.5144 153.22 98.4284 153.86 99.0786C154.473 99.7382 155.339 100.134 156.225 100.426Z" fill="#462754"/>
<path d="M79.3464 184.442C56.6465 185.233 48.9417 171.448 51.2964 161.855C53.6512 152.262 63.042 149.049 60.075 141.087C57.1174 133.133 53.7077 124.153 63.9839 116.766C74.2601 109.378 55.5162 87.0925 70.3136 84.9252C86.3825 82.5694 73.9022 105.053 82.2475 113.241C90.5928 121.43 93.3244 122.985 89.698 131.381C86.0623 139.777 87.2585 144.488 93.1548 147.796C99.0606 151.103 113.236 178.722 79.3464 184.442Z" fill="#66BE8F"/>
<path d="M71.7544 102.659C73.2143 110.066 74.3635 117.52 75.3336 125.001C76.3038 132.483 77.0762 139.993 77.6507 147.522C78.2253 155.052 78.5173 162.59 78.6209 170.138C78.7622 177.686 78.4607 185.234 77.971 192.763L78.2347 187.109L78.3571 184.282L78.4042 181.455L78.4984 175.801L78.4513 170.147C78.3195 162.609 77.9992 155.07 77.387 147.551C76.8313 140.031 76.0966 132.521 75.1547 125.039C74.6743 121.298 74.1657 117.557 73.5911 113.835C73.0542 110.094 72.4514 106.363 71.7544 102.659Z" fill="#462754"/>
<path d="M64.5962 128.535C65.6417 130.655 67.3371 132.417 69.3246 133.652C71.2931 134.877 73.7798 135.48 76.0121 134.773C78.2633 134.104 79.9399 132.219 81.0702 130.194C82.1722 128.111 82.8975 125.849 83.4343 123.55C83.0011 125.868 82.3323 128.168 81.2209 130.278C80.1094 132.342 78.4328 134.302 76.0875 135.028C73.7515 135.744 71.2178 135.075 69.2304 133.803C67.2147 132.54 65.5475 130.702 64.5962 128.535Z" fill="#462754"/>
<path d="M61.8833 157.36C63.9649 159.669 66.5646 161.506 69.4562 162.59C72.3479 163.683 75.5221 164.013 78.555 163.476C81.5974 162.986 84.4796 161.629 86.8438 159.65C89.2174 157.662 91.073 155.127 92.4953 152.366C91.1672 155.174 89.3399 157.775 86.9569 159.791C84.5927 161.817 81.6822 163.221 78.5927 163.749C75.5033 164.258 72.3008 163.89 69.3903 162.76C66.4704 161.638 63.8801 159.735 61.8833 157.36Z" fill="#462754"/>
<path d="M456.429 306.536C427.711 306.762 418.433 289.075 421.729 277.033C425.026 264.99 429.933 261.24 426.467 251.082C422.992 240.924 416.408 228.74 429.651 219.75C442.894 210.761 429.594 182.68 448.376 180.437C468.759 178.006 459.302 206.002 469.569 216.631C479.836 227.26 483.245 229.324 478.366 239.812C473.487 250.3 474.844 256.293 482.19 260.674C489.547 265.056 499.465 300.449 456.429 306.536Z" fill="#009345"/>
<path d="M451.447 242.252C452.568 248.82 453.415 255.445 454.094 262.069C454.772 268.703 455.28 275.355 455.619 282.008C455.949 288.67 456.034 295.342 455.94 302.004C455.883 308.675 455.431 315.328 454.819 321.971L455.177 316.986L455.346 314.489L455.45 311.992L455.666 306.998L455.761 302.004C455.817 295.342 455.714 288.68 455.356 282.018C455.045 275.365 454.574 268.712 453.924 262.078C453.585 258.762 453.227 255.454 452.813 252.147C452.408 248.848 451.965 245.55 451.447 242.252Z" fill="#462754"/>
<path d="M444.514 264.943C445.39 266.837 446.85 268.43 448.574 269.56C450.288 270.691 452.464 271.275 454.442 270.7C456.448 270.163 457.964 268.543 459.01 266.78C460.027 264.971 460.733 262.992 461.261 260.976C460.828 263.021 460.187 265.037 459.161 266.875C458.134 268.675 456.599 270.371 454.508 270.964C452.416 271.539 450.194 270.889 448.47 269.72C446.727 268.552 445.296 266.884 444.514 264.943Z" fill="#462754"/>
<path d="M432.118 281.773C434.897 285.938 438.504 289.622 442.894 292.044C447.273 294.447 452.492 295.398 457.38 294.315C462.287 293.288 466.658 290.414 470.021 286.72C473.421 283.026 475.898 278.578 477.838 273.961C476.906 276.288 475.842 278.569 474.589 280.755C473.308 282.922 471.838 284.976 470.143 286.842C466.79 290.574 462.4 293.514 457.427 294.578C452.463 295.643 447.198 294.644 442.799 292.194C438.391 289.744 434.812 285.994 432.118 281.773Z" fill="#462754"/>
<path d="M452.888 253.079C450.561 253.711 448.046 253.852 445.692 253.183C444.524 252.853 443.403 252.307 442.451 251.525C441.5 250.752 440.728 249.763 440.172 248.669C439.079 246.464 438.712 243.996 438.693 241.574C438.656 239.143 438.966 236.73 439.418 234.356C439.061 236.749 438.825 239.162 438.872 241.574C438.919 243.977 439.315 246.417 440.407 248.547C440.935 249.612 441.67 250.592 442.593 251.355C443.506 252.118 444.599 252.674 445.748 253.013C446.897 253.362 448.103 253.494 449.308 253.485C450.505 253.503 451.71 253.362 452.888 253.079Z" fill="#462754"/>
<path d="M452.2 247.152C452.981 247.096 453.754 246.945 454.47 246.653C455.176 246.342 455.835 245.908 456.401 245.381C457.512 244.297 458.284 242.912 458.774 241.442C459.763 238.493 459.895 235.317 459.688 232.226C459.499 229.117 458.934 226.035 458.124 223.029C457.305 220.023 456.24 217.083 455.007 214.209C456.335 217.036 457.456 219.967 458.294 222.982C459.132 225.998 459.735 229.079 459.952 232.207C460.13 235.326 459.97 238.521 458.934 241.498C458.426 242.978 457.634 244.391 456.485 245.475C455.892 246.003 455.223 246.417 454.498 246.719C453.763 246.992 452.981 247.115 452.2 247.152Z" fill="#462754"/>
<path d="M122.457 182.491C98.8343 182.68 91.2048 168.131 93.9175 158.227C96.6302 148.323 100.671 145.233 97.8076 136.874C94.9536 128.516 89.5283 118.49 100.426 111.102C111.324 103.715 100.379 80.6095 115.836 78.7626C132.602 76.7649 124.822 99.7948 133.27 108.539C141.719 117.284 144.526 118.98 140.514 127.602C136.501 136.224 137.613 141.162 143.66 144.771C149.697 148.371 157.854 177.478 122.457 182.491Z" fill="#33A96A"/>
<path d="M118.351 129.609C120.187 140.427 121.223 151.367 121.807 162.317C122.081 167.791 122.137 173.285 122.062 178.769C122.015 184.254 121.638 189.728 121.129 195.194C121.299 192.461 121.572 189.728 121.638 186.986L121.807 182.878L121.883 178.769C121.93 173.285 121.836 167.81 121.544 162.336C121.289 156.861 120.903 151.395 120.376 145.939C119.82 140.474 119.179 135.037 118.351 129.609Z" fill="#462754"/>
<path d="M112.652 148.276C113.377 149.831 114.583 151.132 116.005 152.055C117.418 152.969 119.189 153.468 120.809 152.997C122.448 152.554 123.682 151.226 124.548 149.784C125.396 148.305 125.99 146.684 126.432 145.025C126.084 146.703 125.566 148.371 124.727 149.888C123.889 151.377 122.608 152.771 120.884 153.261C119.161 153.742 117.315 153.214 115.892 152.234C114.461 151.254 113.293 149.869 112.652 148.276Z" fill="#462754"/>
<path d="M102.461 162.119C104.75 165.539 107.726 168.564 111.333 170.552C114.932 172.522 119.217 173.304 123.239 172.418C127.271 171.58 130.869 169.214 133.628 166.18C136.426 163.146 138.47 159.49 140.071 155.692C139.308 157.615 138.432 159.49 137.415 161.29C136.36 163.071 135.154 164.767 133.76 166.303C131 169.375 127.384 171.796 123.296 172.682C119.208 173.558 114.866 172.729 111.258 170.713C107.604 168.687 104.665 165.596 102.461 162.119Z" fill="#462754"/>
<path d="M119.538 138.523C117.625 139.051 115.553 139.174 113.613 138.627C111.663 138.109 109.949 136.733 109.054 134.914C108.159 133.096 107.858 131.06 107.849 129.072C107.82 127.074 108.075 125.086 108.461 123.136C108.178 125.105 107.99 127.093 108.028 129.072C108.065 131.042 108.404 133.049 109.299 134.801C110.137 136.582 111.767 137.93 113.67 138.467C114.611 138.75 115.6 138.863 116.589 138.863C117.578 138.853 118.577 138.75 119.538 138.523Z" fill="#462754"/>
<path d="M118.972 133.642C119.613 133.595 120.244 133.473 120.837 133.228C121.421 132.964 121.958 132.615 122.42 132.172C123.333 131.287 123.964 130.137 124.36 128.931C125.17 126.509 125.273 123.899 125.104 121.355C124.953 118.801 124.492 116.266 123.832 113.788C123.154 111.31 122.297 108.897 121.289 106.532C122.391 108.85 123.324 111.263 124.011 113.741C124.708 116.219 125.198 118.763 125.377 121.336C125.518 123.899 125.387 126.537 124.539 128.987C124.115 130.203 123.465 131.371 122.514 132.267C122.024 132.7 121.468 133.039 120.865 133.284C120.253 133.51 119.613 133.614 118.972 133.642Z" fill="#462754"/>
<path d="M252.695 99.5592C270.459 100.153 276.497 89.7498 274.66 82.5129C272.814 75.276 265.467 72.8449 267.784 66.8424C270.101 60.8399 272.776 54.0647 264.723 48.4957C256.679 42.9267 271.354 26.1066 259.769 24.467C247.194 22.6954 256.962 39.6569 250.425 45.829C243.898 52.0011 241.75 53.179 244.595 59.5113C247.439 65.8435 246.507 69.396 241.882 71.8931C237.257 74.3902 226.171 95.234 252.695 99.5592Z" fill="#66BE8F"/>
<path d="M258.639 37.8477C257.593 43.445 256.745 49.08 255.992 54.7244C255.257 60.3688 254.683 66.032 254.259 71.7141C253.778 77.3868 253.524 83.0783 253.42 88.7698L253.383 93.0385L253.449 97.3071C253.449 100.153 253.665 102.999 253.769 105.844C253.373 100.162 253.138 94.4708 253.241 88.7698C253.317 83.0783 253.543 77.3774 253.995 71.6953C254.927 60.3311 256.359 49.0046 258.639 37.8477Z" fill="#462754"/>
<path d="M264.243 57.3723C263.499 59.0401 262.19 60.4253 260.617 61.3865C259.072 62.3476 257.122 62.8282 255.305 62.3288C253.487 61.8105 252.111 60.3594 251.235 58.7763C250.36 57.1649 249.832 55.3934 249.493 53.6125C249.926 55.3746 250.52 57.1084 251.414 58.6726C252.319 60.2086 253.647 61.5938 255.38 62.0743C257.104 62.5643 258.978 62.1215 260.513 61.2169C262.067 60.2934 263.405 58.9836 264.243 57.3723Z" fill="#462754"/>
<path d="M266.372 79.1112C264.799 80.9298 262.764 82.3716 260.494 83.2102C258.234 84.0583 255.747 84.341 253.345 83.9735C250.953 83.5871 248.673 82.5412 246.799 81.0241C244.906 79.507 243.455 77.5187 242.41 75.3514C243.549 77.4716 245.047 79.3939 246.912 80.8827C248.777 82.3716 251.028 83.361 253.383 83.7096C255.728 84.096 258.177 83.8604 260.428 83.0406C262.68 82.2302 264.724 80.8639 266.372 79.1112Z" fill="#462754"/>
<path d="M105.334 400.72C123.098 401.313 129.136 390.91 127.299 383.673C125.453 376.436 118.106 374.005 120.423 368.003C122.74 362 125.415 355.225 117.362 349.656C109.318 344.087 123.993 327.267 112.407 325.627C99.833 323.856 109.601 340.817 103.064 346.989C96.5363 353.162 94.3888 354.339 97.2333 360.672C100.078 367.004 99.1454 370.557 94.5206 373.054C89.9053 375.56 78.8002 396.395 105.334 400.72Z" fill="#66BE8F"/>
<path d="M111.268 339.008C110.222 344.605 109.375 350.24 108.621 355.885C107.887 361.529 107.312 367.192 106.888 372.875C106.408 378.547 106.153 384.239 106.05 389.93L106.012 394.199L106.078 398.468C106.078 401.313 106.295 404.159 106.398 407.005C106.003 401.323 105.767 395.631 105.871 389.93C105.946 384.239 106.172 378.538 106.624 372.856C107.566 361.492 108.998 350.165 111.268 339.008Z" fill="#462754"/>
<path d="M116.882 358.533C116.137 360.201 114.828 361.586 113.255 362.547C111.711 363.508 109.761 363.989 107.943 363.489C106.125 362.971 104.75 361.52 103.874 359.937C102.998 358.325 102.47 356.554 102.131 354.773C102.565 356.535 103.158 358.269 104.053 359.833C104.957 361.369 106.285 362.754 108.018 363.235C109.742 363.725 111.616 363.282 113.152 362.377C114.696 361.463 116.043 360.153 116.882 358.533Z" fill="#462754"/>
<path d="M119.01 380.281C117.437 382.1 115.403 383.541 113.133 384.38C110.872 385.228 108.386 385.511 105.984 385.143C103.591 384.757 101.312 383.711 99.4374 382.194C97.5441 380.677 96.0936 378.689 95.0481 376.521C96.1878 378.641 97.6855 380.564 99.5504 382.053C101.415 383.541 103.667 384.531 106.021 384.88C108.367 385.266 110.816 385.03 113.067 384.21C115.309 383.391 117.353 382.034 119.01 380.281Z" fill="#462754"/>
<path d="M179.17 478.187C196.934 478.78 202.972 468.377 201.135 461.14C199.289 453.903 191.942 451.472 194.259 445.47C196.576 439.467 199.251 432.692 191.198 427.123C183.154 421.554 197.829 404.734 186.243 403.094C173.669 401.323 183.437 418.284 176.9 424.456C170.372 430.628 168.225 431.806 171.069 438.139C173.914 444.471 172.981 448.023 168.357 450.52C163.741 453.036 152.646 473.871 179.17 478.187Z" fill="#66BE8F"/>
<path d="M185.113 416.475C184.068 422.072 183.22 427.707 182.466 433.352C181.732 438.996 181.157 444.659 180.733 450.341C180.253 456.014 179.999 461.706 179.895 467.397L179.857 471.666L179.923 475.934C179.923 478.78 180.14 481.626 180.244 484.472C179.848 478.79 179.612 473.098 179.716 467.397C179.791 461.706 180.017 456.005 180.47 450.323C181.411 438.968 182.834 427.641 185.113 416.475Z" fill="#462754"/>
<path d="M190.718 436C189.973 437.667 188.664 439.053 187.091 440.014C185.546 440.975 183.597 441.455 181.779 440.956C179.961 440.438 178.586 438.987 177.71 437.404C176.834 435.792 176.306 434.021 175.967 432.24C176.401 434.002 176.994 435.736 177.889 437.3C178.793 438.836 180.121 440.221 181.854 440.702C183.578 441.192 185.452 440.749 186.988 439.844C188.542 438.93 189.889 437.62 190.718 436Z" fill="#462754"/>
<path d="M192.846 457.748C191.273 459.567 189.239 461.008 186.969 461.847C184.708 462.695 182.221 462.978 179.82 462.61C177.427 462.224 175.148 461.178 173.273 459.661C171.38 458.144 169.93 456.155 168.884 453.988C170.024 456.108 171.521 458.031 173.386 459.519C175.251 461.008 177.502 461.998 179.857 462.346C182.203 462.733 184.652 462.497 186.903 461.677C189.154 460.867 191.198 459.501 192.846 457.748Z" fill="#462754"/>
<path d="M429.529 343.107C447.293 343.701 453.331 333.298 451.494 326.061C449.648 318.824 442.301 316.393 444.618 310.39C446.935 304.388 449.61 297.613 441.557 292.044C433.513 286.475 448.188 269.655 436.603 268.015C424.028 266.243 433.796 283.205 427.259 289.377C420.731 295.549 418.584 296.727 421.428 303.059C424.273 309.392 423.34 312.944 418.716 315.441C414.1 317.948 402.995 338.791 429.529 343.107Z" fill="#66BE8F"/>
<path d="M435.463 281.396C434.418 286.993 433.57 292.628 432.817 298.272C432.082 303.917 431.507 309.58 431.083 315.262C430.603 320.935 430.349 326.626 430.245 332.318L430.207 336.586L430.273 340.855C430.273 343.701 430.49 346.547 430.594 349.392C430.198 343.71 429.963 338.019 430.066 332.318C430.142 326.626 430.368 320.925 430.82 315.243C431.762 303.879 433.184 292.553 435.463 281.396Z" fill="#462754"/>
<path d="M441.067 300.92C440.323 302.588 439.014 303.973 437.441 304.934C435.896 305.896 433.946 306.376 432.128 305.877C430.311 305.358 428.935 303.907 428.059 302.324C427.183 300.713 426.656 298.941 426.317 297.16C426.75 298.923 427.344 300.656 428.238 302.221C429.143 303.757 430.471 305.142 432.204 305.622C433.928 306.112 435.802 305.669 437.337 304.765C438.891 303.851 440.238 302.541 441.067 300.92Z" fill="#462754"/>
<path d="M443.196 322.669C441.623 324.487 439.588 325.929 437.318 326.768C435.058 327.616 432.571 327.898 430.169 327.531C427.777 327.144 425.497 326.099 423.623 324.581C421.73 323.064 420.279 321.076 419.234 318.909C420.373 321.029 421.871 322.951 423.736 324.44C425.601 325.929 427.852 326.918 430.207 327.267C432.552 327.653 435.001 327.418 437.252 326.598C439.504 325.778 441.547 324.421 443.196 322.669Z" fill="#462754"/>
<path d="M475.239 373.478C493.003 374.071 499.041 363.668 497.204 356.431C495.358 349.195 488.011 346.763 490.328 340.761C492.645 334.758 495.32 327.983 487.267 322.414C479.223 316.845 493.898 300.025 482.313 298.385C469.738 296.614 479.506 313.575 472.969 319.747C466.442 325.92 464.294 327.097 467.139 333.43C469.983 339.762 469.051 343.315 464.426 345.812C459.811 348.318 448.715 369.162 475.239 373.478Z" fill="#33A96A"/>
<path d="M481.182 311.766C480.137 317.363 479.289 322.998 478.536 328.643C477.801 334.287 477.226 339.95 476.802 345.633C476.322 351.305 476.068 356.997 475.964 362.688L475.926 366.957L475.992 371.226C475.992 374.071 476.209 376.917 476.313 379.763C475.917 374.081 475.682 368.389 475.785 362.688C475.861 356.997 476.087 351.296 476.539 345.614C477.471 334.25 478.903 322.923 481.182 311.766Z" fill="#462754"/>
<path d="M486.786 331.291C486.042 332.959 484.733 334.344 483.16 335.305C481.615 336.266 479.666 336.747 477.848 336.247C476.03 335.729 474.655 334.278 473.779 332.695C472.903 331.083 472.375 329.312 472.036 327.531C472.469 329.293 473.063 331.027 473.958 332.591C474.862 334.127 476.19 335.512 477.923 335.993C479.647 336.483 481.521 336.04 483.056 335.135C484.611 334.221 485.957 332.911 486.786 331.291Z" fill="#462754"/>
<path d="M488.915 353.039C487.342 354.858 485.308 356.299 483.038 357.138C480.777 357.986 478.29 358.269 475.889 357.901C473.496 357.515 471.217 356.469 469.342 354.952C467.449 353.435 465.998 351.447 464.953 349.279C466.093 351.399 467.59 353.322 469.455 354.811C471.32 356.299 473.571 357.289 475.926 357.638C478.272 358.024 480.72 357.788 482.972 356.968C485.223 356.149 487.267 354.792 488.915 353.039Z" fill="#462754"/>
<path d="M130.162 497.136C147.926 497.73 153.964 487.327 152.127 480.09C150.281 472.853 142.934 470.422 145.251 464.419C147.568 458.417 150.243 451.642 142.19 446.073C134.146 440.504 148.821 423.684 137.236 422.044C124.661 420.272 134.429 437.234 127.892 443.406C121.365 449.578 119.217 450.756 122.062 457.088C124.906 463.421 123.974 466.973 119.349 469.47C114.734 471.977 103.638 492.82 130.162 497.136Z" fill="#33A96A"/>
<path d="M136.105 435.425C135.06 441.022 134.212 446.657 133.459 452.301C132.724 457.946 132.149 463.609 131.726 469.291C131.245 474.964 130.991 480.655 130.887 486.347L130.85 490.615L130.916 494.884C130.916 497.73 131.132 500.576 131.236 503.421C130.84 497.739 130.605 492.048 130.708 486.347C130.784 480.655 131.01 474.954 131.462 469.272C132.394 457.918 133.826 446.591 136.105 435.425Z" fill="#462754"/>
<path d="M141.71 454.949C140.966 456.617 139.656 458.002 138.083 458.964C136.539 459.925 134.589 460.405 132.771 459.906C130.953 459.388 129.578 457.936 128.702 456.353C127.826 454.742 127.299 452.97 126.959 451.189C127.393 452.952 127.986 454.685 128.881 456.25C129.785 457.786 131.113 459.171 132.846 459.651C134.57 460.141 136.444 459.699 137.98 458.794C139.534 457.88 140.871 456.57 141.71 454.949Z" fill="#462754"/>
<path d="M143.838 476.698C142.265 478.516 140.231 479.958 137.961 480.797C135.7 481.645 133.214 481.927 130.812 481.56C128.419 481.174 126.14 480.128 124.266 478.61C122.372 477.093 120.922 475.105 119.876 472.938C121.016 475.058 122.514 476.98 124.379 478.469C126.244 479.958 128.495 480.947 130.849 481.296C133.195 481.682 135.644 481.447 137.895 480.627C140.146 479.817 142.19 478.45 143.838 476.698Z" fill="#462754"/>
<path d="M177.173 162.694C194.937 163.287 200.975 152.884 199.138 145.647C197.292 138.41 189.945 135.979 192.262 129.977C194.579 123.974 197.254 117.199 189.201 111.63C181.157 106.061 195.832 89.241 184.246 87.6014C171.672 85.8298 181.439 102.791 174.903 108.963C168.375 115.135 166.228 116.313 169.072 122.646C171.917 128.978 170.984 132.53 166.36 135.028C161.744 137.534 150.639 158.368 177.173 162.694Z" fill="#33A96A"/>
<path d="M183.116 100.982C182.071 106.579 181.223 112.214 180.469 117.859C179.735 123.503 179.16 129.166 178.736 134.849C178.256 140.521 178.002 146.213 177.898 151.904L177.86 156.173L177.926 160.442C177.926 163.287 178.143 166.133 178.246 168.979C177.851 163.297 177.615 157.605 177.719 151.904C177.794 146.213 178.02 140.512 178.473 134.83C179.405 123.465 180.837 112.139 183.116 100.982Z" fill="#462754"/>
<path d="M188.72 120.507C187.976 122.175 186.667 123.56 185.103 124.521C183.559 125.482 181.609 125.963 179.791 125.463C177.973 124.945 176.598 123.494 175.722 121.911C174.846 120.299 174.319 118.528 173.979 116.747C174.413 118.509 175.006 120.243 175.901 121.807C176.805 123.343 178.133 124.728 179.866 125.209C181.59 125.699 183.465 125.256 185 124.351C186.535 123.437 187.882 122.118 188.72 120.507Z" fill="#462754"/>
<path d="M190.84 142.255C189.267 144.074 187.232 145.515 184.962 146.354C182.702 147.202 180.215 147.485 177.813 147.117C175.421 146.731 173.141 145.685 171.267 144.168C169.374 142.651 167.923 140.663 166.878 138.495C168.017 140.615 169.515 142.538 171.38 144.027C173.245 145.515 175.496 146.505 177.851 146.853C180.196 147.24 182.645 147.004 184.896 146.184C187.148 145.365 189.191 143.998 190.84 142.255Z" fill="#462754"/>
<path d="M364.876 300.487C382.641 301.08 388.678 290.677 386.842 283.44C384.995 276.204 377.649 273.772 379.966 267.77C382.283 261.767 384.958 254.992 376.904 249.423C368.861 243.854 383.535 227.034 371.95 225.395C359.375 223.623 369.143 240.584 362.606 246.757C356.079 252.929 353.931 254.107 356.776 260.439C359.62 266.771 358.688 270.324 354.063 272.821C349.448 275.327 338.343 296.162 364.876 300.487Z" fill="#33A96A"/>
<path d="M370.82 238.775C369.774 244.373 368.926 250.008 368.173 255.652C367.438 261.296 366.864 266.96 366.44 272.642C365.959 278.314 365.705 284.006 365.601 289.697L365.564 293.966L365.63 298.235C365.63 301.08 365.846 303.926 365.95 306.772C365.554 301.09 365.319 295.398 365.422 289.697C365.498 284.006 365.724 278.305 366.176 272.623C367.108 261.259 368.54 249.932 370.82 238.775Z" fill="#462754"/>
<path d="M376.424 258.3C375.68 259.968 374.371 261.353 372.798 262.314C371.253 263.275 369.303 263.756 367.485 263.256C365.667 262.738 364.292 261.287 363.416 259.704C362.54 258.092 362.013 256.321 361.674 254.54C362.107 256.302 362.7 258.036 363.595 259.6C364.5 261.136 365.828 262.521 367.561 263.002C369.284 263.492 371.159 263.049 372.694 262.144C374.239 261.23 375.586 259.911 376.424 258.3Z" fill="#462754"/>
<path d="M378.553 280.048C376.98 281.867 374.945 283.309 372.675 284.147C370.415 284.995 367.928 285.278 365.526 284.91C363.134 284.524 360.854 283.478 358.98 281.961C357.087 280.444 355.636 278.456 354.591 276.288C355.73 278.409 357.228 280.331 359.093 281.82C360.958 283.309 363.209 284.298 365.564 284.647C367.909 285.033 370.358 284.797 372.609 283.978C374.851 283.158 376.904 281.791 378.553 280.048Z" fill="#462754"/>
<path d="M280.83 95.3471C293.489 95.7712 297.793 88.3553 296.484 83.2008C295.175 78.0464 289.929 76.3126 291.586 72.0345C293.235 67.7565 295.137 62.9319 289.401 58.9554C283.665 54.9882 294.12 43.0021 285.869 41.8337C276.902 40.571 283.863 52.6608 279.21 57.0613C274.557 61.4619 273.031 62.3005 275.056 66.8142C277.081 71.3278 276.412 73.8626 273.125 75.6436C269.838 77.4245 261.916 92.2658 280.83 95.3471Z" fill="#33A96A"/>
<path d="M285.059 51.3698C284.324 55.3652 283.731 59.3794 283.194 63.3936C282.676 67.4172 282.271 71.4503 281.969 75.5022C281.621 79.5447 281.442 83.5966 281.357 87.6485L281.329 90.6921L281.376 93.7358C281.366 95.7617 281.517 97.7877 281.583 99.8136C281.291 95.7711 281.103 91.7098 281.178 87.6485C281.225 83.5872 281.385 79.5258 281.705 75.4833C282.393 67.389 283.401 59.3134 285.059 51.3698Z" fill="#462754"/>
<path d="M289.052 65.2877C288.525 66.475 287.602 67.4738 286.481 68.1617C285.379 68.8684 283.976 69.1794 282.676 68.8307C281.366 68.4632 280.387 67.4173 279.775 66.2865C279.426 65.7211 279.228 65.0992 279.002 64.4961C278.804 63.8742 278.691 63.2334 278.541 62.6115C278.908 63.8459 279.275 65.0992 279.954 66.1923C280.585 67.2853 281.527 68.2653 282.751 68.5857C283.957 68.9344 285.294 68.6517 286.377 68.0015C287.479 67.3419 288.431 66.4184 289.052 65.2877Z" fill="#462754"/>
<path d="M290.569 80.7791C289.458 82.0889 288.017 83.1255 286.397 83.7379C284.776 84.3599 282.996 84.5483 281.282 84.2845C279.568 84.0112 277.938 83.2762 276.601 82.1737C275.254 81.0806 274.227 79.6483 273.492 78.103C274.312 79.6012 275.386 80.9676 276.723 82.0135C278.051 83.0595 279.643 83.7756 281.32 84.0206C284.682 84.586 288.214 83.2668 290.569 80.7791Z" fill="#462754"/>
<path d="M397.457 325.071C410.116 325.496 414.42 318.08 413.111 312.925C411.802 307.771 406.555 306.037 408.213 301.759C409.862 297.481 411.764 292.656 406.037 288.68C400.301 284.713 410.756 272.726 402.505 271.558C393.538 270.295 400.499 282.385 395.846 286.786C391.193 291.186 389.667 292.025 391.692 296.539C393.717 301.052 393.049 303.587 389.761 305.368C386.465 307.149 378.553 321.99 397.457 325.071Z" fill="#006E34"/>
<path d="M401.686 281.094C400.951 285.089 400.358 289.104 399.821 293.118C399.303 297.142 398.898 301.175 398.597 305.227C398.248 309.269 398.069 313.321 397.984 317.373L397.956 320.416L398.003 323.46C397.994 325.486 398.145 327.512 398.21 329.538C397.918 325.496 397.73 321.434 397.805 317.373C397.853 313.312 398.013 309.25 398.333 305.208C399.021 297.113 400.028 289.047 401.686 281.094Z" fill="#462754"/>
<path d="M405.679 295.012C405.152 296.199 404.219 297.198 403.108 297.886C402.006 298.593 400.603 298.904 399.303 298.555C397.993 298.188 397.014 297.142 396.402 296.011C396.053 295.445 395.855 294.823 395.629 294.22C395.431 293.598 395.318 292.958 395.168 292.336C395.535 293.57 395.902 294.824 396.581 295.917C397.212 297.01 398.154 297.99 399.378 298.31C400.584 298.659 401.921 298.376 403.004 297.726C404.106 297.066 405.067 296.143 405.679 295.012Z" fill="#462754"/>
<path d="M407.196 310.503C406.085 311.813 404.644 312.85 403.023 313.462C401.403 314.084 399.623 314.273 397.909 314.009C396.195 313.736 394.565 313.001 393.228 311.898C391.881 310.805 390.854 309.373 390.119 307.827C390.939 309.326 392.013 310.692 393.35 311.738C394.678 312.784 396.27 313.5 397.947 313.745C401.309 314.31 404.841 312.991 407.196 310.503Z" fill="#462754"/>
<path d="M330.308 271.53C311.102 271.313 298.066 260.401 300.355 247.557C302.644 234.714 312.534 233.856 310.245 219.948C307.956 206.04 316.839 199.613 320.851 198.765C324.864 197.907 332.032 198.124 334.462 207.538C336.901 216.951 341.055 203.901 346.217 208.395C351.378 212.89 346.499 223.595 349.947 225.734C353.385 227.873 368.483 237.183 356.681 256.764C347.498 271.982 330.308 271.53 330.308 271.53Z" fill="#006E34"/>
<path d="M330.6 279.841C331.316 278.022 331.626 276.081 331.777 274.149C331.918 272.208 331.909 270.267 331.787 268.326C331.542 264.444 330.882 260.599 329.893 256.839C329.394 254.964 328.81 253.108 328.123 251.289C327.416 249.47 326.917 247.548 326.776 245.597C326.484 241.696 327.491 237.663 329.79 234.478L329.78 234.497C330.76 232.697 331.4 230.719 331.777 228.711C332.145 226.695 332.229 224.612 331.909 222.586C331.589 220.56 330.835 218.6 329.639 216.933C328.452 215.246 326.804 213.936 325.005 212.947C326.823 213.908 328.49 215.208 329.714 216.885C330.948 218.544 331.73 220.523 332.06 222.568C332.399 224.612 332.323 226.714 331.956 228.749C331.589 230.784 330.948 232.773 329.969 234.61L329.959 234.62C327.718 237.758 326.729 241.753 327.049 245.597C327.19 247.529 327.661 249.423 328.358 251.232C329.046 253.061 329.62 254.926 330.11 256.811C331.08 260.59 331.721 264.453 331.947 268.345C332.06 270.286 332.06 272.246 331.881 274.187C331.683 276.09 331.344 278.032 330.6 279.841Z" fill="#462754"/>
<path d="M307.843 241.913C307.749 244.401 308.107 246.936 309.049 249.235C309.991 251.525 311.827 253.466 314.182 254.267C315.331 254.7 316.575 254.907 317.809 254.917C318.43 254.964 319.052 254.879 319.664 254.86C320.276 254.776 320.898 254.719 321.51 254.597C323.959 254.135 326.333 253.334 328.659 252.42C326.38 253.428 324.006 254.286 321.539 254.766C320.926 254.889 320.295 254.964 319.674 255.049C319.042 255.077 318.421 255.162 317.79 255.124C316.528 255.124 315.265 254.926 314.069 254.502C312.882 254.059 311.79 253.362 310.904 252.457C310.019 251.553 309.341 250.46 308.87 249.291C307.937 246.964 307.645 244.401 307.843 241.913Z" fill="#462754"/>
<path d="M330.967 261.155C332.267 261.211 333.567 261.023 334.772 260.599C335.969 260.156 337.099 259.459 337.89 258.451C338.691 257.461 339.228 256.264 339.52 255.021C339.68 254.399 339.727 253.748 339.83 253.117L339.906 251.176L339.962 253.127C339.877 253.777 339.859 254.427 339.717 255.068C339.454 256.349 338.907 257.584 338.088 258.63C337.25 259.657 336.082 260.392 334.829 260.797C333.586 261.193 332.257 261.306 330.967 261.155Z" fill="#462754"/>
<path d="M339.313 256.18C340.226 256.321 341.159 256.33 342.063 256.236C342.967 256.132 343.862 255.897 344.653 255.463C345.068 255.266 345.416 254.983 345.774 254.7C346.085 254.37 346.414 254.059 346.65 253.664C347.196 252.929 347.498 252.043 347.78 251.167C347.667 251.609 347.592 252.081 347.441 252.514C347.253 252.938 347.102 253.39 346.829 253.777C346.349 254.587 345.623 255.256 344.785 255.69C343.099 256.566 341.102 256.641 339.313 256.18Z" fill="#462754"/>
<path d="M327.934 238.2C327.096 238.21 326.22 238.191 325.41 237.871C324.609 237.56 323.874 236.938 323.564 236.099C323.262 235.27 323.281 234.365 323.479 233.536C323.677 232.697 324.053 231.915 324.572 231.246C324.138 231.972 323.846 232.773 323.677 233.583C323.526 234.393 323.507 235.251 323.809 236.005C324.082 236.778 324.741 237.343 325.485 237.682C326.248 238.021 327.096 238.116 327.934 238.2Z" fill="#462754"/>
<path d="M332.192 223.953C333.152 224.226 334.16 224.32 335.14 224.245C336.119 224.16 337.09 223.868 337.881 223.303C338.681 222.747 339.322 221.983 339.774 221.098C340.019 220.674 340.16 220.193 340.367 219.741L340.782 218.299L340.499 219.778C340.32 220.25 340.198 220.74 339.962 221.192C339.538 222.115 338.86 222.926 338.041 223.519C337.193 224.104 336.176 224.415 335.168 224.452C334.141 224.49 333.134 224.32 332.192 223.953Z" fill="#462754"/>
<path d="M326.87 244.806C328.735 245.616 330.694 246.201 332.681 246.53C334.669 246.832 336.75 246.832 338.643 246.153C339.585 245.833 340.471 245.324 341.224 244.665C341.968 243.996 342.571 243.176 343.052 242.29C343.975 240.49 344.436 238.483 344.643 236.467C344.53 238.493 344.135 240.537 343.202 242.375C342.731 243.279 342.129 244.127 341.366 244.834C340.603 245.522 339.689 246.059 338.719 246.408C336.76 247.077 334.64 247.049 332.644 246.709C330.637 246.361 328.688 245.711 326.87 244.806Z" fill="#462754"/>
<path d="M435.114 397.591C412.357 397.422 396.901 388.752 399.613 378.557C402.335 368.361 414.053 367.682 411.331 356.639C408.609 345.595 419.149 340.497 423.896 339.819C428.652 339.14 437.148 339.31 440.031 346.782C442.922 354.255 447.839 343.889 453.961 347.461C460.074 351.032 454.3 359.522 458.379 361.228C462.457 362.924 480.344 370.311 466.366 385.869C455.497 397.949 435.114 397.591 435.114 397.591Z" fill="#33A96A"/>
<path d="M434.605 353.746C433.249 355.612 432.354 357.779 431.779 360.003C431.196 362.227 430.998 364.545 431.186 366.834C431.365 369.134 431.977 371.357 432.768 373.515C433.588 375.673 434.266 377.888 434.878 380.111C436.018 384.587 436.781 389.167 437.045 393.775C437.261 398.354 437.177 403.113 435.462 407.438C436.291 405.28 436.668 402.981 436.847 400.691C437.026 398.392 437.007 396.083 436.866 393.794C436.574 389.195 435.773 384.634 434.615 380.187C434.021 377.963 433.362 375.758 432.552 373.6C431.77 371.423 431.167 369.171 430.998 366.853C430.649 362.245 431.874 357.477 434.605 353.746Z" fill="#462754"/>
<path d="M421.691 361.736C421.899 363.338 422.304 364.912 422.831 366.429C423.368 367.937 424.037 369.416 424.988 370.717C425.921 372.017 427.126 373.11 428.53 373.873L429.622 374.363C429.999 374.495 430.395 374.561 430.781 374.674C430.979 374.721 431.167 374.778 431.365 374.825L431.968 374.872L433.173 374.966C431.572 374.966 429.895 374.835 428.435 374.052C426.976 373.317 425.742 372.187 424.771 370.867C423.82 369.539 423.142 368.031 422.643 366.495C422.144 364.95 421.814 363.348 421.691 361.736Z" fill="#462754"/>
<path d="M435.895 385.294C437.431 385.369 438.975 385.153 440.416 384.653C441.839 384.135 443.176 383.306 444.118 382.109C445.069 380.931 445.701 379.518 446.049 378.029C446.237 377.294 446.285 376.521 446.416 375.767L446.492 373.459L446.548 375.767C446.445 376.531 446.416 377.313 446.256 378.067C445.945 379.584 445.296 381.044 444.325 382.269C443.336 383.485 441.952 384.352 440.482 384.832C439.004 385.322 437.431 385.464 435.895 385.294Z" fill="#462754"/>
<path d="M445.795 379.395C446.878 379.574 447.98 379.584 449.054 379.48C450.128 379.358 451.192 379.084 452.144 378.566C452.633 378.331 453.048 377.991 453.472 377.661C453.839 377.266 454.235 376.898 454.517 376.427C455.158 375.551 455.516 374.505 455.836 373.459C455.695 373.986 455.61 374.533 455.421 375.051C455.205 375.56 455.016 376.088 454.687 376.54C454.423 377.04 454.009 377.426 453.641 377.841C453.208 378.189 452.775 378.557 452.276 378.802C450.269 379.838 447.914 379.923 445.795 379.395Z" fill="#462754"/>
<path d="M432.307 358.09C431.308 358.099 430.281 358.071 429.321 357.685C428.369 357.317 427.512 356.582 427.145 355.602C426.787 354.622 426.806 353.557 427.041 352.577C427.277 351.588 427.719 350.655 428.313 349.854C427.795 350.712 427.437 351.654 427.239 352.624C427.051 353.586 427.032 354.603 427.39 355.508C427.71 356.431 428.501 357.11 429.396 357.506C430.3 357.892 431.308 357.996 432.307 358.09Z" fill="#462754"/>
<path d="M79.1677 209.639C58.8978 209.488 45.1271 201.771 47.5478 192.687C49.9685 183.603 60.4049 183 57.9842 173.163C55.5635 163.325 64.9449 158.783 69.1835 158.18C73.422 157.577 80.9855 157.728 83.5569 164.38C86.1283 171.042 90.5177 161.808 95.9619 164.983C101.406 168.159 96.2633 175.726 99.8991 177.243C103.525 178.76 119.462 185.337 107.01 199.189C97.3182 209.96 79.1677 209.639 79.1677 209.639Z" fill="#006E34"/>
<path d="M78.7159 170.59C77.5103 172.258 76.7096 174.19 76.201 176.159C75.683 178.138 75.504 180.202 75.683 182.246C75.8431 184.291 76.3894 186.27 77.0958 188.192C77.8305 190.115 78.4333 192.084 78.9797 194.072C79.9875 198.058 80.6657 202.138 80.9012 206.247C81.0895 210.327 81.0142 214.567 79.4789 218.412C80.2136 216.49 80.5526 214.445 80.7033 212.4C80.8635 210.355 80.8446 208.301 80.7222 206.256C80.4585 202.157 79.752 198.105 78.7159 194.138C78.1884 192.159 77.595 190.19 76.8792 188.268C76.1822 186.327 75.6453 184.319 75.504 182.256C75.1838 178.157 76.2764 173.907 78.7159 170.59Z" fill="#462754"/>
<path d="M67.2148 177.704C67.4032 179.127 67.7706 180.531 68.2321 181.879C68.7125 183.226 69.3059 184.536 70.1536 185.686C70.9825 186.845 72.0468 187.815 73.2996 188.494L74.2698 188.937C74.6088 189.05 74.9574 189.116 75.3059 189.21C75.4754 189.257 75.6544 189.304 75.8239 189.342L76.3608 189.389L77.4346 189.483C76.0029 189.493 74.5146 189.37 73.2054 188.682C71.9056 188.032 70.7941 187.014 69.937 185.846C69.0892 184.659 68.4864 183.321 68.0437 181.945C67.601 180.569 67.309 179.146 67.2148 177.704Z" fill="#462754"/>
<path d="M79.865 198.69C81.2308 198.756 82.6059 198.558 83.8869 198.115C85.1491 197.653 86.3453 196.918 87.1836 195.853C88.0313 194.807 88.587 193.545 88.9073 192.225C89.0768 191.566 89.1239 190.887 89.2369 190.209L89.3123 188.155L89.3688 190.218C89.284 190.897 89.2558 191.594 89.1145 192.273C88.8319 193.629 88.2574 194.93 87.4002 196.023C86.5148 197.107 85.2809 197.879 83.9717 198.313C82.6342 198.727 81.2308 198.85 79.865 198.69Z" fill="#462754"/>
<path d="M88.6812 193.441C89.6419 193.592 90.6309 193.601 91.5822 193.507C92.543 193.394 93.4849 193.149 94.3232 192.687C94.7565 192.48 95.1238 192.178 95.51 191.886C95.8396 191.538 96.1882 191.208 96.433 190.793C97.0076 190.011 97.3278 189.088 97.6198 188.155C97.4974 188.626 97.422 189.116 97.2525 189.578C97.0547 190.03 96.8946 190.501 96.6026 190.906C96.3671 191.349 95.9998 191.698 95.6701 192.065C95.2839 192.376 94.8977 192.706 94.4456 192.923C92.6748 193.837 90.565 193.922 88.6812 193.441Z" fill="#462754"/>
<path d="M76.662 174.454C75.7766 174.463 74.8535 174.444 74.0058 174.095C73.1581 173.775 72.3952 173.106 72.0655 172.23C71.7452 171.353 71.7641 170.402 71.9713 169.525C72.1879 168.649 72.5835 167.82 73.1204 167.104C72.6683 167.867 72.3481 168.715 72.1785 169.572C72.0184 170.43 71.9996 171.335 72.3198 172.135C72.6024 172.955 73.2994 173.558 74.0906 173.907C74.8818 174.275 75.7766 174.369 76.662 174.454Z" fill="#462754"/>
<path d="M238.105 113.213C219.916 113.081 207.568 106.155 209.744 98.0044C211.92 89.8629 221.282 89.3164 219.106 80.487C216.931 71.6576 225.351 67.5868 229.147 67.0497C232.943 66.5032 239.734 66.6445 242.042 72.6187C244.35 78.593 248.287 70.3101 253.166 73.1653C258.054 76.0205 253.439 82.805 256.698 84.162C259.957 85.5189 274.255 91.4271 263.075 103.847C254.39 113.496 238.105 113.213 238.105 113.213Z" fill="#006E34"/>
<path d="M237.7 78.1783C236.617 79.6766 235.901 81.4104 235.449 83.182C234.987 84.9535 234.827 86.8098 234.987 88.6379C235.138 90.466 235.618 92.2469 236.259 93.9713C236.918 95.6958 237.464 97.4673 237.954 99.2483C238.858 102.829 239.471 106.485 239.678 110.17C239.847 113.835 239.772 117.633 238.397 121.081C239.056 119.357 239.348 117.52 239.489 115.691C239.631 113.854 239.612 112.016 239.499 110.179C239.263 106.504 238.623 102.867 237.7 99.3142C237.229 97.5427 236.701 95.7711 236.061 94.0562C235.439 92.3129 234.959 90.5131 234.827 88.6568C234.526 84.9629 235.505 81.156 237.7 78.1783Z" fill="#462754"/>
<path d="M227.386 84.5577C227.565 85.8393 227.894 87.0925 228.309 88.2987C228.742 89.5048 229.279 90.6827 230.032 91.7098C230.777 92.7464 231.728 93.6227 232.849 94.2258L233.715 94.6216C234.017 94.7252 234.328 94.7817 234.638 94.8665C234.789 94.9042 234.949 94.9514 235.1 94.9891L235.58 95.0267L236.541 95.1116C235.26 95.121 233.923 95.0173 232.745 94.4048C231.568 93.8206 230.579 92.916 229.806 91.8606C229.044 90.7958 228.507 89.5897 228.102 88.3552C227.725 87.1302 227.471 85.8487 227.386 84.5577Z" fill="#462754"/>
<path d="M238.736 103.385C239.96 103.442 241.194 103.253 242.343 102.857C243.474 102.443 244.538 101.783 245.292 100.822C246.054 99.889 246.554 98.7583 246.836 97.571C246.987 96.9867 247.034 96.3648 247.138 95.7617L247.213 93.9242L247.27 95.7711C247.194 96.3836 247.175 97.0056 247.043 97.6086C246.799 98.8242 246.281 99.9927 245.499 100.982C244.708 101.962 243.596 102.65 242.409 103.036C241.213 103.423 239.951 103.536 238.736 103.385Z" fill="#462754"/>
<path d="M246.638 98.6734C247.505 98.8054 248.381 98.8148 249.247 98.7206C250.104 98.6169 250.952 98.4002 251.706 97.9856C252.092 97.7971 252.421 97.5333 252.761 97.2694C253.053 96.9584 253.363 96.6569 253.589 96.2894C254.107 95.5921 254.39 94.7629 254.663 93.9242C254.55 94.3483 254.484 94.7911 254.343 95.2058C254.173 95.611 254.023 96.035 253.759 96.4025C253.307 97.1752 252.619 97.8065 251.819 98.2211C250.227 99.0504 248.324 99.1163 246.638 98.6734Z" fill="#462754"/>
<path d="M235.863 81.646C235.072 81.6554 234.243 81.646 233.471 81.335C232.708 81.0429 232.02 80.4493 231.719 79.6577C231.427 78.8662 231.445 78.0087 231.643 77.2266C231.832 76.4351 232.199 75.6906 232.679 75.0593C232.274 75.7472 231.992 76.501 231.841 77.2737C231.7 78.037 231.681 78.8474 231.973 79.5635C232.227 80.2985 232.849 80.8356 233.555 81.1466C234.271 81.4764 235.072 81.5612 235.863 81.646Z" fill="#462754"/>
</svg>
